<mxfile host="app.diagrams.net" modified="2021-03-21T21:11:45.863Z" agent="5.0 (Windows NT 10.0; Win64; x64) AppleWebKit/537.36 (KHTML, like Gecko) Chrome/89.0.4389.90 Safari/537.36 Edg/89.0.774.54" etag="vHHq24mKQaXf9v_84vQ5" version="14.4.9" type="github">
  <diagram id="wNn8iT0Lav6W_vQZD9Cr" name="Page-1">
    <mxGraphModel dx="1038" dy="548" grid="1" gridSize="10" guides="1" tooltips="1" connect="1" arrows="1" fold="1" page="1" pageScale="1" pageWidth="850" pageHeight="1100" math="0" shadow="0">
      <root>
        <mxCell id="0" />
        <mxCell id="1" parent="0" />
        <mxCell id="aP3M64-0cu4lGdGA6tg_-1" value="" style="whiteSpace=wrap;html=1;aspect=fixed;fillColor=#56595C;" vertex="1" parent="1">
          <mxGeometry x="130" y="90" width="460" height="460" as="geometry" />
        </mxCell>
        <mxCell id="aP3M64-0cu4lGdGA6tg_-4" value="" style="rounded=0;whiteSpace=wrap;html=1;fillColor=#818489;rotation=90;" vertex="1" parent="1">
          <mxGeometry x="65" y="265" width="330" height="90" as="geometry" />
        </mxCell>
        <mxCell id="aP3M64-0cu4lGdGA6tg_-5" value="" style="rounded=0;whiteSpace=wrap;html=1;fillColor=#818489;rotation=90;" vertex="1" parent="1">
          <mxGeometry x="312.5" y="262.5" width="325" height="90" as="geometry" />
        </mxCell>
        <mxCell id="aP3M64-0cu4lGdGA6tg_-6" value="AQUA" style="text;html=1;strokeColor=none;fillColor=none;align=center;verticalAlign=middle;whiteSpace=wrap;rounded=0;" vertex="1" parent="1">
          <mxGeometry x="520" y="100" width="40" height="20" as="geometry" />
        </mxCell>
        <mxCell id="aP3M64-0cu4lGdGA6tg_-7" value="Governed Zone" style="text;html=1;strokeColor=none;fillColor=none;align=center;verticalAlign=middle;whiteSpace=wrap;rounded=0;" vertex="1" parent="1">
          <mxGeometry x="450" y="250" width="40" height="20" as="geometry" />
        </mxCell>
        <mxCell id="aP3M64-0cu4lGdGA6tg_-8" value="Transformer Silver Zone" style="text;html=1;strokeColor=none;fillColor=none;align=center;verticalAlign=middle;whiteSpace=wrap;rounded=0;" vertex="1" parent="1">
          <mxGeometry x="210" y="250" width="40" height="20" as="geometry" />
        </mxCell>
        <mxCell id="aP3M64-0cu4lGdGA6tg_-11" value="" style="shape=flexArrow;endArrow=classic;html=1;exitX=1;exitY=0.5;exitDx=0;exitDy=0;entryX=1.001;entryY=0.378;entryDx=0;entryDy=0;entryPerimeter=0;" edge="1" parent="1" source="aP3M64-0cu4lGdGA6tg_-4" target="aP3M64-0cu4lGdGA6tg_-5">
          <mxGeometry width="50" height="50" relative="1" as="geometry">
            <mxPoint x="490" y="605" as="sourcePoint" />
            <mxPoint x="520" y="580" as="targetPoint" />
            <Array as="points">
              <mxPoint x="230" y="510" />
              <mxPoint x="360" y="510" />
              <mxPoint x="486" y="510" />
            </Array>
          </mxGeometry>
        </mxCell>
        <mxCell id="aP3M64-0cu4lGdGA6tg_-16" value="Write to curated_gold" style="edgeLabel;html=1;align=center;verticalAlign=middle;resizable=0;points=[];" vertex="1" connectable="0" parent="aP3M64-0cu4lGdGA6tg_-11">
          <mxGeometry x="-0.3238" y="1" relative="1" as="geometry">
            <mxPoint as="offset" />
          </mxGeometry>
        </mxCell>
        <mxCell id="aP3M64-0cu4lGdGA6tg_-14" value="" style="shape=flexArrow;endArrow=classic;html=1;exitX=0;exitY=0.5;exitDx=0;exitDy=0;entryX=0;entryY=0.5;entryDx=0;entryDy=0;" edge="1" parent="1" source="aP3M64-0cu4lGdGA6tg_-5" target="aP3M64-0cu4lGdGA6tg_-4">
          <mxGeometry width="50" height="50" relative="1" as="geometry">
            <mxPoint x="475" y="145" as="sourcePoint" />
            <mxPoint x="230" y="145" as="targetPoint" />
            <Array as="points">
              <mxPoint x="475" y="110" />
              <mxPoint x="230" y="110" />
            </Array>
          </mxGeometry>
        </mxCell>
        <mxCell id="aP3M64-0cu4lGdGA6tg_-15" value="Read from curated_gold data" style="edgeLabel;html=1;align=center;verticalAlign=middle;resizable=0;points=[];fillColor=#E6E6E6;" vertex="1" connectable="0" parent="aP3M64-0cu4lGdGA6tg_-14">
          <mxGeometry x="0.4785" y="3" relative="1" as="geometry">
            <mxPoint x="42" y="-3" as="offset" />
          </mxGeometry>
        </mxCell>
      </root>
    </mxGraphModel>
  </diagram>
</mxfile>
